# Blender 5.1.2
# www.blender.org
mtllib rough_scanner.mtl
o Cube
v -0.022500 -0.020000 0.110000
v -0.022500 0.020000 0.110000
v -0.008500 -0.009000 -0.110000
v -0.008500 -0.003000 -0.110000
v 0.022500 -0.020000 0.110000
v 0.022500 0.020000 0.110000
v 0.008500 -0.009000 -0.110000
v 0.008500 -0.003000 -0.110000
v -0.022500 -0.020000 0.000000
v -0.022500 0.020000 0.000000
v 0.022500 -0.020000 0.000000
v 0.022500 0.020000 0.000000
v -0.008500 0.009000 -0.055000
v 0.008500 -0.009000 -0.055000
v -0.008500 -0.009000 -0.055000
v 0.008500 0.009000 -0.055000
v -0.008500 0.009000 -0.082500
v 0.008500 -0.009000 -0.082500
v -0.008500 -0.009000 -0.082500
v 0.008500 0.009000 -0.082500
v -0.008500 0.009000 -0.096250
v 0.008500 -0.009000 -0.096250
v -0.008500 -0.009000 -0.096250
v 0.008500 0.009000 -0.096250
vn -1.0000 -0.0000 -0.0000
vn -0.0000 -0.0000 -1.0000
vn 1.0000 -0.0000 -0.0000
vn -0.0000 -0.0000 1.0000
vn -0.0000 -1.0000 -0.0000
vn -0.0000 1.0000 -0.0000
vn -0.0000 0.9806 -0.1961
vn -0.0000 -0.9806 -0.1961
vn 0.9691 -0.0000 -0.2467
vn -0.9691 -0.0000 -0.2467
vn -0.0000 0.7534 -0.6575
vt 0.375000 0.234375
vt 0.625000 0.234375
vt 0.625000 0.250000
vt 0.375000 0.250000
vt 0.625000 0.500000
vt 0.375000 0.500000
vt 0.375000 0.625000
vt 0.625000 0.625000
vt 0.625000 0.750000
vt 0.375000 0.750000
vt 0.625000 1.000000
vt 0.375000 1.000000
vt 0.125000 0.625000
vt 0.125000 0.750000
vt 0.875000 0.625000
vt 0.875000 0.750000
vt 0.625000 0.562500
vt 0.875000 0.562500
vt 0.125000 0.562500
vt 0.375000 0.562500
vt 0.375000 0.000000
vt 0.625000 0.000000
vt 0.625000 0.125000
vt 0.375000 0.125000
vt 0.375000 0.531250
vt 0.625000 0.531250
vt 0.125000 0.531250
vt 0.875000 0.531250
vt 0.625000 0.187500
vt 0.375000 0.187500
vt 0.625000 0.515625
vt 0.875000 0.515625
vt 0.125000 0.515625
vt 0.375000 0.515625
vt 0.625000 0.218750
vt 0.375000 0.218750
vt 0.125000 0.500000
vt 0.875000 0.500000
s 0
f 23/1/1 21/2/1 4/3/1 3/4/1
f 3/4/2 4/3/2 8/5/2 7/6/2
f 11/7/3 12/8/3 6/9/3 5/10/3
f 5/10/4 6/9/4 2/11/4 1/12/4
f 9/13/5 11/7/5 5/10/5 1/14/5
f 12/8/6 10/15/6 2/16/6 6/9/6
f 16/17/7 13/18/7 10/15/7 12/8/7
f 15/19/8 14/20/8 11/7/8 9/13/8
f 14/20/9 16/17/9 12/8/9 11/7/9
f 1/21/1 2/22/1 10/23/1 9/24/1
f 18/25/3 20/26/3 16/17/3 14/20/3
f 19/27/5 18/25/5 14/20/5 15/19/5
f 20/26/6 17/28/6 13/18/6 16/17/6
f 9/24/10 10/23/10 13/29/10 15/30/10
f 24/31/6 21/32/6 17/28/6 20/26/6
f 23/33/5 22/34/5 18/25/5 19/27/5
f 22/34/3 24/31/3 20/26/3 18/25/3
f 15/30/1 13/29/1 17/35/1 19/36/1
f 7/6/3 8/5/3 24/31/3 22/34/3
f 3/37/5 7/6/5 22/34/5 23/33/5
f 8/5/11 4/38/11 21/32/11 24/31/11
f 19/36/1 17/35/1 21/2/1 23/1/1
